<svg width="1536" height="1536" viewBox="0 0 1536 1536" fill="none" xmlns="http://www.w3.org/2000/svg">
<rect width="1536" height="1536" rx="300" fill="black"/>
<g filter="url(#filter0_i_211_2)">
<g clip-path="url(#clip0_211_2)">
<rect width="1536" height="1536" rx="50" fill="black"/>
<line x1="1536.02" y1="1333" x2="0.0483392" y2="1342" stroke="#01FF00" stroke-opacity="0.1" stroke-width="12"/>
<line x1="1536.02" y1="1172" x2="0.0483392" y2="1181" stroke="#01FF00" stroke-opacity="0.1" stroke-width="12"/>
<line x1="1536.02" y1="1011" x2="0.0483392" y2="1020" stroke="#01FF00" stroke-opacity="0.1" stroke-width="12"/>
<line x1="1536.02" y1="850.001" x2="0.0483392" y2="859.001" stroke="#01FF00" stroke-opacity="0.1" stroke-width="12"/>
<line x1="1536.02" y1="689.001" x2="0.0483392" y2="698.001" stroke="#01FF00" stroke-opacity="0.1" stroke-width="12"/>
<line x1="1536.02" y1="528.001" x2="0.0483392" y2="537.001" stroke="#01FF00" stroke-opacity="0.1" stroke-width="12"/>
<line x1="1536.02" y1="367.001" x2="0.0483392" y2="376.001" stroke="#01FF00" stroke-opacity="0.1" stroke-width="12"/>
<line x1="1536.02" y1="206.001" x2="0.0483392" y2="215.001" stroke="#01FF00" stroke-opacity="0.1" stroke-width="12"/>
<line x1="203" y1="1536.02" x2="194" y2="0.047851" stroke="#001A00" stroke-width="12"/>
<line x1="364" y1="1536.02" x2="355" y2="0.047851" stroke="#003300" stroke-width="12"/>
<line x1="525" y1="1536.02" x2="516" y2="0.047851" stroke="#001A00" stroke-width="12"/>
<line x1="686" y1="1536.02" x2="677" y2="0.047851" stroke="#025302" stroke-width="12"/>
<line x1="846.999" y1="1536.02" x2="838" y2="0.047851" stroke="#001A00" stroke-width="12"/>
<line x1="1008" y1="1536.02" x2="998.999" y2="0.047851" stroke="#003300" stroke-width="12"/>
<line x1="1169" y1="1536.02" x2="1160" y2="0.047851" stroke="#001A00" stroke-width="12"/>
<line x1="1330" y1="1536.02" x2="1321" y2="0.047851" stroke="#025302" stroke-width="12"/>
<g filter="url(#filter1_f_211_2)">
<circle cx="130" cy="122" r="180" fill="#01FF00"/>
</g>
<g filter="url(#filter2_f_211_2)">
<circle cx="1003" cy="1544" r="240" fill="#01FF00"/>
</g>
<g clip-path="url(#clip1_211_2)">
<path d="M765.558 725.512C758.564 708.814 744.613 682.541 727.904 668.091L729.38 689.386L728.636 689.172C728.347 689.089 728.085 689.014 727.858 688.936L727.406 688.63L726.261 688.153C717.885 684.653 709.325 682.879 700.82 682.879C692.316 682.879 683.756 684.653 675.38 688.153C658.548 695.199 646.455 707.297 639.424 724.109C636.323 731.803 633.537 738.686 631.074 744.743C627.511 736.109 624.612 729.111 622.381 723.751C616.842 710.825 608.161 700.6 596.527 693.246L596.362 693.143L596.195 693.044C584.942 686.413 572.903 683.053 560.414 683.053C559.977 683.053 559.539 683.058 559.101 683.065C558.662 683.058 558.224 683.053 557.788 683.053C545.259 683.053 533.307 686.439 522.261 693.117C510.426 700.586 501.742 710.811 496.247 723.637C493.052 731.557 490.199 738.61 487.685 744.787C484.047 736.272 481.072 729.232 478.788 723.754C471.711 707.159 459.777 695.227 443.278 688.19L443.11 688.119L442.943 688.052C434.518 684.745 426.044 683.067 417.753 683.067C409.216 683.067 400.615 684.745 392.191 688.052L392.012 688.121L391.835 688.197C390.579 688.734 389.673 689.122 389.103 689.314L388.566 689.498L387.933 689.767C371.513 697.065 359.639 709.099 352.636 725.532C348.988 734.05 347.136 742.641 347.136 751.05C347.136 759.347 348.816 767.826 352.131 776.247C381.999 847.845 378.083 878.453 396.322 910.086C403.792 923.037 432.028 957.674 444.593 965.785C456.871 974.133 470.674 978.363 485.617 978.363H489.365C504.366 978.363 518.219 974.098 530.539 965.687C542.626 957.729 551.863 946.687 557.822 932.982C558.343 931.725 558.343 931.725 558.343 931.725L557.684 930.495C563.382 944.289 575.63 957.669 588.195 965.783C600.466 974.128 614.269 978.361 629.219 978.361H632.967C647.97 978.361 661.823 974.096 674.138 965.684C686.215 957.741 695.454 946.698 701.424 932.987C730.018 863.868 751.836 811.283 766.364 776.483L766.465 776.24L766.557 775.994C769.559 767.856 771.079 759.71 771.072 751.789C771.065 742.893 769.213 734.05 765.558 725.512Z" fill="#3B49F4"/>
<path d="M747.126 700.937C740.132 684.239 726.181 657.966 709.472 643.516L710.948 664.81L710.204 664.597C709.915 664.514 709.654 664.439 709.426 664.361L708.974 664.055L707.829 663.578C699.453 660.078 690.893 658.304 682.388 658.304C673.884 658.304 665.324 660.078 656.948 663.578C640.116 670.624 628.023 682.722 620.993 699.535C617.891 707.228 615.105 714.111 612.642 720.168C609.079 711.534 606.18 704.536 603.949 699.177C598.41 686.25 589.729 676.025 578.096 668.671L577.93 668.568L577.763 668.467C566.511 661.836 554.471 658.476 541.982 658.476C541.546 658.476 541.107 658.48 540.669 658.487C540.23 658.48 539.792 658.476 539.356 658.476C526.827 658.476 514.875 661.861 503.829 668.54C491.994 676.009 483.31 686.234 477.815 699.059C474.62 706.98 471.767 714.033 469.253 720.21C465.615 711.695 462.64 704.655 460.356 699.177C453.279 682.582 441.345 670.649 424.846 663.612L424.678 663.541L424.511 663.475C416.087 660.167 407.612 658.49 399.321 658.49C390.784 658.49 382.183 660.167 373.759 663.475L373.58 663.544L373.403 663.619C372.147 664.156 371.241 664.544 370.671 664.737L370.134 664.921L369.501 665.189C353.082 672.488 341.207 684.522 334.204 700.955C330.557 709.473 328.704 718.066 328.704 726.473C328.704 734.77 330.384 743.249 333.699 751.67C363.567 823.269 359.651 853.878 377.891 885.51C385.36 898.462 413.596 933.099 426.161 941.21C438.439 949.558 452.242 953.788 467.185 953.788H470.934C485.934 953.788 499.787 949.523 512.107 941.111C524.194 933.154 533.431 922.112 539.39 908.407C539.911 907.149 539.911 907.149 539.911 907.149L539.252 905.919C544.95 919.713 557.198 933.094 569.763 941.208C582.035 949.553 595.837 953.785 610.787 953.785H614.536C629.538 953.785 643.391 949.521 655.706 941.109C667.783 933.165 677.024 922.123 682.992 908.412C711.586 839.292 733.404 786.706 747.932 751.906L748.033 751.663L748.125 751.418C751.127 743.279 752.647 735.133 752.64 727.212C752.633 718.318 750.781 709.475 747.126 700.937Z" fill="#00FF00"/>
<path d="M728.694 676.36C721.7 659.663 707.749 633.39 691.04 618.939L692.516 640.234L691.772 640.021C691.483 639.938 691.221 639.862 690.994 639.784L690.542 639.479L689.397 639.002C681.021 635.501 672.461 633.727 663.956 633.727C655.452 633.727 646.892 635.501 638.516 639.002C621.684 646.048 609.591 658.146 602.56 674.958C599.459 682.651 596.673 689.535 594.21 695.592C590.647 686.957 587.748 679.959 585.517 674.6C579.978 661.673 571.297 651.448 559.663 644.095L559.498 643.991L559.331 643.893C548.078 637.262 536.039 633.902 523.55 633.902C523.113 633.902 522.675 633.906 522.237 633.913C521.798 633.906 521.36 633.902 520.924 633.902C508.395 633.902 496.443 637.287 485.397 643.966C473.562 651.435 464.878 661.66 459.383 674.485C456.188 682.406 453.335 689.459 450.821 695.635C447.183 687.12 444.208 680.081 441.924 674.602C434.847 658.008 422.913 646.075 406.414 639.038L406.246 638.967L406.079 638.901C397.654 635.593 389.18 633.916 380.889 633.916C372.352 633.916 363.751 635.593 355.327 638.901L355.148 638.97L354.971 639.045C353.715 639.582 352.809 639.97 352.239 640.163L351.702 640.347L351.069 640.615C334.649 647.914 322.775 659.947 315.772 676.381C312.124 684.898 310.272 693.492 310.272 701.899C310.272 710.196 311.952 718.674 315.267 727.095C345.135 798.694 341.219 829.302 359.458 860.934C366.928 873.886 395.164 908.523 407.729 916.634C420.007 924.981 433.81 929.211 448.753 929.211H452.501C467.502 929.211 481.355 924.947 493.674 916.535C505.762 908.578 514.999 897.536 520.958 883.831C521.479 882.573 521.479 882.573 521.479 882.573L520.82 881.343C526.517 895.137 538.766 908.518 551.331 916.632C563.602 924.977 577.405 929.209 592.355 929.209H596.103C611.106 929.209 624.959 924.945 637.274 916.533C649.351 908.589 658.59 897.547 664.56 883.836C693.154 814.716 714.972 762.131 729.5 727.332L729.601 727.088L729.693 726.843C732.695 718.704 734.215 710.559 734.208 702.638C734.203 693.742 732.349 684.898 728.694 676.36Z" fill="#F6CC06"/>
<path d="M707.188 651.784C700.194 635.087 686.242 608.814 669.534 594.363L671.01 615.658L670.266 615.445C669.977 615.362 669.715 615.286 669.488 615.208L669.036 614.903L667.89 614.425C659.514 610.925 650.955 609.151 642.45 609.151C633.946 609.151 625.386 610.925 617.01 614.425C600.178 621.472 588.085 633.57 581.054 650.382C577.953 658.075 575.167 664.959 572.704 671.016C569.141 662.381 566.242 655.383 564.011 650.024C558.472 637.097 549.791 626.872 538.157 619.518L533.631 627.414L531.528 622.645C520.276 616.014 514.533 609.323 502.043 609.323C501.607 609.323 501.169 609.328 500.73 609.335C500.292 609.328 499.853 609.323 499.417 609.323C486.889 609.323 474.937 612.709 463.891 619.388C452.056 626.856 443.372 637.081 437.877 649.907C434.682 657.827 431.828 664.88 429.315 671.057C425.677 662.542 422.702 655.502 420.418 650.024C413.341 633.43 402.433 630.235 385.936 623.2L384.742 614.391L384.575 614.324C376.15 611.017 367.676 609.339 359.385 609.339C350.848 609.339 342.247 611.017 333.823 614.324L333.644 614.393L333.467 614.469C332.211 615.006 331.305 615.394 330.735 615.587L330.198 615.77L329.565 616.039C313.146 623.338 301.271 635.371 294.268 651.805C290.62 660.322 288.768 668.913 288.768 677.323C288.768 685.62 290.448 694.098 293.763 702.519C323.631 774.117 319.715 804.726 337.955 836.358C345.424 849.31 373.66 883.947 386.225 892.058C398.503 900.405 412.306 904.635 427.249 904.635H430.997C445.998 904.635 459.851 900.371 472.171 891.959C484.258 884.002 493.495 872.959 499.454 859.255C499.975 857.997 499.975 857.997 499.975 857.997L499.316 856.767C505.014 870.561 517.262 883.942 529.827 892.055C542.099 900.401 555.901 904.633 570.851 904.633H574.6C589.602 904.633 603.455 900.369 615.77 891.957C627.847 884.013 637.088 872.971 643.056 859.26C671.65 790.14 693.468 737.555 707.996 702.756L708.097 702.512L708.189 702.267C711.191 694.128 712.711 685.982 712.704 678.062C712.695 669.166 710.842 660.322 707.188 651.784Z" fill="#F98F00"/>
<path d="M688.763 624.272C681.769 607.584 670.237 588.535 653.861 575.932L652.585 588.163L651.841 587.95C651.552 587.867 651.29 587.791 651.063 587.713L650.611 587.408L649.465 586.931C641.089 583.433 632.529 581.66 624.025 581.66C615.52 581.66 606.96 583.433 598.584 586.931C581.752 593.974 569.66 606.065 562.629 622.868C559.527 630.558 556.741 637.437 554.278 643.491C550.715 634.861 534.085 625.49 531.854 620.134C526.315 607.214 531.365 599.371 519.731 592.021L519.566 591.918L519.399 591.82C508.146 585.192 496.107 581.834 483.617 581.834C483.181 581.834 482.743 581.839 482.304 581.845C481.866 581.839 481.427 581.834 480.991 581.834C468.463 581.834 456.51 585.218 445.465 591.893C433.629 599.357 424.946 609.577 419.45 622.396C416.255 630.312 413.402 637.361 410.888 643.534C407.25 635.024 391.092 627.791 388.811 622.315C381.734 605.73 382.98 594.001 366.483 586.968L366.315 586.897L366.148 586.83C357.724 583.525 349.249 581.848 340.958 581.848C332.421 581.848 323.82 583.525 315.396 586.83L315.217 586.899L315.04 586.975C313.784 587.512 312.878 587.899 312.308 588.092L311.771 588.275L311.138 588.544C294.718 595.839 282.844 607.866 275.841 624.29C272.189 632.806 270.336 641.392 270.336 649.797C270.336 658.09 272.016 666.563 275.331 674.98C305.199 746.54 310.249 777.804 324.1 811.569C329.809 825.385 355.226 856.308 367.791 864.417C380.07 872.76 393.872 876.988 408.816 876.988H412.564C427.565 876.988 441.418 872.725 453.737 864.318C465.825 856.365 475.062 845.329 481.021 831.632C481.542 830.375 481.542 830.375 481.542 830.375L480.883 829.145C486.581 842.932 498.829 856.305 511.394 864.414C523.666 872.755 537.468 876.985 552.418 876.985H556.167C571.17 876.985 585.023 872.723 597.338 864.316C609.414 856.376 618.653 845.34 624.624 831.636C653.218 762.554 675.036 709.997 689.564 675.216L689.665 674.973L689.757 674.728C692.759 666.593 694.279 658.452 694.272 650.536C694.27 641.644 692.417 632.806 688.763 624.272Z" fill="#FB0100"/>
<path d="M534.023 849.339C520.285 849.339 507.612 845.402 496.357 837.637C484.956 830.25 476.45 819.98 471.22 807.212C469.557 802.819 467.185 796.917 464.112 789.532C462.263 794.113 459.877 799.962 456.894 807.219C451.382 820.012 442.912 830.236 431.677 837.697C420.497 845.399 407.824 849.336 394.095 849.336H390.345C376.613 849.336 363.941 845.399 352.68 837.637C341.278 830.25 332.771 819.978 327.541 807.21C313.727 773.199 292.504 721.586 262.66 649.401C259.585 641.521 258.048 633.739 258.048 626.155C258.048 618.525 259.732 610.686 263.055 602.856C269.416 587.79 280.217 576.749 295.152 570.05L295.442 569.92L295.742 569.82C296.101 569.7 296.95 569.378 298.981 568.499C306.858 565.376 314.694 563.828 322.448 563.828C329.955 563.828 337.665 565.376 345.365 568.423C360.507 574.936 371.336 585.862 377.723 600.97C381.172 609.326 386.149 621.136 392.554 636.161C396.116 627.439 400.854 615.682 406.683 601.088C411.726 589.21 419.601 579.847 430.15 573.129C440.31 566.926 451.18 563.814 462.557 563.814C462.996 563.814 463.432 563.819 463.873 563.828C464.312 563.819 464.751 563.814 465.189 563.814C476.555 563.814 487.531 566.914 497.815 573.029C508.531 579.858 516.408 589.222 521.392 600.963C524.754 609.108 529.591 620.909 535.909 636.404C539.482 627.657 544.2 615.944 549.983 601.466C556.39 585.999 567.361 574.927 582.624 568.481C590.242 565.269 597.993 563.643 605.671 563.643C613.349 563.643 621.1 565.269 628.713 568.479L629.285 568.72L629.797 569.067C629.797 569.065 629.795 569.065 629.795 569.065C629.806 569.065 630.323 569.329 631.772 569.748L632.146 569.857L632.505 570.01C647.488 576.454 658.326 587.521 664.71 602.9C668.013 610.684 669.696 618.78 669.696 626.911C669.703 634.152 668.311 641.636 665.567 649.153L665.47 649.399C650.928 684.546 629.096 737.642 600.579 807.21C595.054 820.017 586.581 830.238 575.353 837.692C564.183 845.395 551.51 849.332 537.781 849.332H534.023V849.339Z" fill="white"/>
<path d="M605.597 570.104C612.472 570.104 619.344 571.553 626.219 574.449C626.97 574.961 628.221 575.458 629.968 575.963C643.472 581.768 653.085 591.598 658.842 605.453C661.84 612.513 663.341 619.697 663.341 627.005C663.348 633.56 662.09 640.233 659.6 647.04C645.095 682.076 623.474 734.628 594.732 804.696C589.726 816.292 582.107 825.49 571.858 832.291C561.609 839.352 550.235 842.878 537.741 842.878C536.99 842.878 535.739 842.878 533.992 842.878C521.491 842.878 510.117 839.35 499.875 832.291C489.376 825.49 481.75 816.292 477.001 804.696C474.999 799.402 471.88 791.72 467.631 781.63C466.88 780.117 465.622 779.364 463.882 779.364C462.381 779.364 461.259 780.114 460.506 781.63C458.504 786.679 455.378 794.361 451.129 804.696C446.129 816.292 438.504 825.49 428.262 832.291C418.005 839.352 406.634 842.878 394.137 842.878C393.394 842.878 392.136 842.878 390.389 842.878C377.885 842.878 366.521 839.35 356.271 832.291C345.772 825.49 338.147 816.292 333.397 804.696C319.152 769.666 297.524 717.115 268.532 647.042C265.78 639.987 264.405 633.057 264.405 626.25C264.405 619.443 265.906 612.518 268.904 605.456C274.654 591.846 284.281 582.015 297.779 575.965C298.522 575.72 299.776 575.208 301.527 574.451C308.524 571.681 315.518 570.297 322.521 570.297C329.272 570.297 336.147 571.681 343.141 574.451C356.639 580.256 366.259 589.957 372.016 603.567C375.764 612.64 381.508 626.25 389.262 644.397C389.755 645.911 390.885 646.663 392.638 646.663C394.385 646.663 395.508 645.913 396.008 644.397C399.757 635.323 405.256 621.713 412.508 603.567C417.007 592.98 423.997 584.663 433.502 578.613C442.613 573.058 452.297 570.283 462.558 570.283C462.996 570.283 463.432 570.287 463.873 570.299C464.312 570.29 464.75 570.283 465.186 570.283C475.454 570.283 485.269 573.058 494.621 578.613C504.113 584.663 511.116 592.98 515.615 603.567C519.363 612.64 524.992 626.38 532.489 644.772C532.982 646.285 534.112 647.042 535.866 647.042C537.612 647.042 538.735 646.285 539.235 644.772C542.984 635.698 548.484 622.088 555.735 603.942C561.48 590.084 571.229 580.254 584.977 574.451C591.849 571.553 598.722 570.104 605.597 570.104ZM605.597 557.499C597.092 557.499 588.532 559.288 580.154 562.818C563.321 569.926 551.227 582.124 544.198 599.079L544.168 599.153L544.138 599.227C541.069 606.909 538.301 613.804 535.849 619.885C532.363 611.363 529.454 604.282 527.157 598.715L527.131 598.655L527.106 598.597C521.615 585.677 512.934 575.368 501.301 567.952L501.135 567.848L500.968 567.748C489.713 561.061 477.676 557.673 465.186 557.673C464.748 557.673 464.309 557.677 463.871 557.684C463.432 557.677 462.994 557.673 462.558 557.673C450.029 557.673 438.077 561.087 427.031 567.822L426.928 567.885L426.827 567.95C415.196 575.354 406.512 585.666 401.017 598.6L400.964 598.725L400.913 598.852C397.773 606.712 394.948 613.749 392.455 619.927C388.819 611.344 385.842 604.245 383.558 598.715C376.478 581.981 364.547 569.947 348.047 562.85L347.879 562.779L347.709 562.712C339.285 559.376 330.808 557.684 322.519 557.684C313.982 557.684 305.381 559.376 296.957 562.712L296.78 562.786L296.603 562.862C294.574 563.739 293.971 563.954 293.872 563.989L293.268 564.188L292.701 564.443C276.282 571.806 264.405 583.941 257.404 600.514C253.756 609.103 251.904 617.767 251.904 626.248C251.904 634.615 253.584 643.165 256.899 651.658L256.945 651.776L256.993 651.894C286.751 723.823 307.957 775.367 321.824 809.478C327.532 823.421 336.792 834.621 349.362 842.801C361.641 851.217 375.441 855.483 390.384 855.483H394.133C409.097 855.483 422.92 851.203 435.217 842.762C447.438 834.626 456.647 823.509 462.59 809.718L462.634 809.619L462.675 809.519C463.168 808.32 463.644 807.161 464.105 806.04C464.548 807.175 464.952 808.221 465.317 809.184L465.377 809.343L465.441 809.503C471.138 823.414 480.396 834.614 492.961 842.794C505.233 851.213 519.035 855.481 533.988 855.481H537.736C552.703 855.481 566.521 851.201 578.813 842.76C591.028 834.633 600.237 823.518 606.191 809.723L606.237 809.617L606.281 809.51C634.786 740.016 656.604 686.986 671.132 651.894L671.233 651.648L671.325 651.401C674.327 643.191 675.847 634.979 675.84 626.989C675.84 618.017 673.988 609.099 670.333 600.488C663.339 583.65 651.393 571.465 634.868 564.362L634.155 564.056L633.409 563.841C633.048 563.737 632.791 563.654 632.621 563.596L632.18 563.295L631.037 562.813C622.661 559.288 614.101 557.499 605.597 557.499Z" fill="#FB0100"/>
<path d="M835.654 886.627C824.622 872.746 812.486 849.34 794.544 849.34L788.656 862.194C775.664 862.194 764.783 868.944 754.524 876.814C742.353 886.146 717.782 892.057 715.895 907.112C714.008 922.165 735.028 944.564 744.529 956.523C755.562 970.403 772.179 978.364 790.123 978.364C803.116 978.364 815.406 974.205 825.664 966.335C850.787 947.065 855.267 911.309 835.654 886.627Z" fill="#3B49F4"/>
<path d="M814.15 858.979C803.118 845.099 790.982 821.692 773.04 821.692L767.152 834.547C754.159 834.547 743.279 841.296 733.02 849.167C720.849 858.499 696.278 864.409 694.391 879.465C692.504 894.518 713.524 916.916 723.025 928.875C734.058 942.756 750.675 950.716 768.619 950.716C781.611 950.716 793.902 946.558 804.16 938.687C829.282 919.417 833.763 883.662 814.15 858.979Z" fill="#00FF00"/>
<path d="M795.72 834.403C784.688 820.522 772.551 797.116 754.609 797.116L748.721 809.971C735.728 809.971 724.847 816.72 714.589 824.591C702.418 833.923 677.846 839.833 675.959 854.889C674.072 869.942 695.093 892.34 704.594 904.299C715.626 918.18 732.244 926.14 750.188 926.14C763.181 926.14 775.471 921.982 785.73 914.111C810.85 894.841 815.331 859.086 795.72 834.403Z" fill="#F6CC06"/>
<path d="M777.286 809.827C766.254 795.946 754.118 772.54 736.176 772.54L730.288 785.394C717.295 785.394 706.415 792.144 696.156 800.015C683.985 809.346 659.414 815.257 657.527 830.313C655.64 845.366 676.66 867.764 686.161 879.723C697.194 893.603 713.811 901.564 731.755 901.564C744.747 901.564 757.038 897.406 767.296 889.535C792.418 870.267 796.899 834.509 777.286 809.827Z" fill="#F98F00"/>
<path d="M758.854 785.251C747.822 771.37 735.686 747.964 717.744 747.964L711.856 760.818C698.863 760.818 687.983 767.568 677.724 775.438C665.553 784.77 640.982 790.681 639.095 805.736C637.208 820.789 658.228 843.188 667.729 855.147C678.762 869.027 695.379 876.988 713.323 876.988C726.316 876.988 738.606 872.829 748.864 864.959C773.986 845.691 778.467 809.933 758.854 785.251Z" fill="#FB0100"/>
<path d="M694.303 849.34C678.081 849.34 663.059 842.022 653.09 829.255C635.363 806.552 639.416 773.671 662.121 755.954C671.395 748.717 682.501 744.892 694.243 744.892C710.46 744.892 725.482 752.21 735.453 764.976C753.18 787.677 749.13 820.558 726.426 838.278C717.151 845.514 706.042 849.34 694.303 849.34Z" fill="white"/>
<path d="M694.244 751.371C707.851 751.371 721.32 757.411 730.343 768.963C745.896 788.881 742.358 817.622 722.438 833.168C714.076 839.695 704.153 842.856 694.304 842.856C680.694 842.856 667.225 836.816 658.2 825.264C642.647 805.347 646.185 776.605 666.112 761.06C674.477 754.535 684.397 751.373 694.244 751.371ZM694.246 738.748C681.121 738.748 668.705 743.022 658.342 751.111C632.963 770.913 628.431 807.665 648.245 833.036C659.39 847.302 676.177 855.484 694.304 855.484C707.429 855.484 719.845 851.21 730.209 843.121C755.585 823.317 760.109 786.568 740.298 761.196C729.156 746.93 712.369 738.748 694.246 738.748Z" fill="#FB0100"/>
<path d="M1126.07 748.171C1115.08 729.25 1099.28 704.37 1081.33 693.073C1071.24 686.925 1061.63 691.745 1050.38 688.456C1039.01 685.137 1027.08 683.452 1014.93 683.452H975.108C962.962 683.452 951.037 685.135 939.659 688.453C928.385 691.751 917.642 696.489 907.72 702.534C889.624 713.927 874.955 729.247 863.966 748.171C852.873 767.274 847.25 788.428 847.25 811.047L841.728 911.832C841.728 929.945 853.793 946.083 866.698 958.961C879.608 971.837 895.353 978.364 913.497 978.364H943.847C968.707 978.364 988.792 959.753 991.131 935.55L989.448 934.198C991.789 958.401 1021.33 978.364 1046.19 978.364H1076.54C1094.69 978.364 1110.43 971.837 1123.34 958.963C1136.24 946.078 1142.78 930.363 1142.78 912.254V811.047C1142.78 788.417 1137.16 767.262 1126.07 748.171Z" fill="#3B49F4"/>
<path d="M1107.63 723.595C1096.65 704.674 1080.85 679.794 1062.9 668.497C1052.81 662.349 1043.2 667.168 1031.95 663.879C1020.58 660.561 1008.65 658.876 996.495 658.876H956.676C944.53 658.876 932.605 660.558 921.227 663.877C909.953 667.175 899.21 671.912 889.288 677.958C871.192 689.351 856.523 704.671 845.534 723.595C834.442 742.698 828.818 763.852 828.818 786.471L823.296 887.256C823.296 905.369 835.362 921.507 848.266 934.385C861.176 947.26 876.921 953.788 895.065 953.788H925.415C950.275 953.788 970.36 935.176 972.699 910.974L971.016 909.622C973.357 933.825 1002.9 953.788 1027.76 953.788H1058.1C1076.25 953.788 1092 947.261 1104.91 934.387C1117.81 921.502 1124.35 905.787 1124.35 887.678V786.471C1124.35 763.841 1118.73 742.686 1107.63 723.595Z" fill="#00FF00"/>
<path d="M1086.13 699.019C1075.15 680.097 1059.35 655.218 1041.4 643.921C1031.31 637.772 1021.7 642.592 1010.45 639.303C999.079 635.984 987.152 634.3 974.994 634.3H935.175C923.029 634.3 911.104 635.982 899.726 639.301C888.452 642.599 877.709 647.336 867.787 653.382C849.691 664.775 835.022 680.095 824.033 699.019C812.94 718.121 807.314 739.276 807.314 761.895L801.792 862.68C801.792 880.793 813.858 896.93 826.763 909.809C839.672 922.684 855.418 929.212 873.56 929.212H903.91C928.77 929.212 948.855 910.6 951.194 886.398L949.511 885.046C951.852 909.249 981.397 929.212 1006.26 929.212H1036.6C1054.75 929.212 1070.49 922.684 1083.4 909.811C1096.31 896.926 1102.85 881.211 1102.85 863.102V761.895C1102.85 739.267 1097.23 718.11 1086.13 699.019Z" fill="#F6CC06"/>
<path d="M1067.7 671.369C1056.72 652.448 1040.26 633.777 1022.31 622.482C1012.22 616.333 1003.27 614.945 992.012 611.656C980.643 608.337 968.716 606.652 956.558 606.652H916.74C904.594 606.652 892.669 608.335 881.291 611.653C870.017 614.952 859.274 619.689 849.352 625.734C831.256 637.127 816.587 652.448 805.598 671.371C794.506 690.474 788.88 711.628 788.88 734.247L783.36 835.032C783.36 853.146 795.426 869.283 808.33 882.161C821.24 895.037 836.985 901.564 855.129 901.564H885.479C910.339 901.564 930.424 882.953 932.763 858.75L931.08 857.399C933.421 881.601 962.964 901.564 987.826 901.564H1018.17C1036.32 901.564 1052.06 895.037 1064.97 882.163C1077.88 869.278 1084.42 853.563 1084.42 835.455V734.245C1084.42 711.617 1078.79 690.46 1067.7 671.369Z" fill="#F98F00"/>
<path d="M1049.27 646.795C1038.29 627.874 1022.48 602.994 1004.54 591.697C994.449 585.549 984.838 590.369 973.584 587.08C962.215 583.761 950.288 582.076 938.13 582.076H898.311C886.165 582.076 874.24 583.759 862.862 587.077C851.588 590.375 840.845 595.113 830.923 601.158C812.827 612.551 798.158 627.871 787.169 646.795C776.076 665.898 770.45 687.052 770.45 709.671L764.928 810.456C764.928 828.569 776.994 844.707 789.899 857.585C802.808 870.461 818.554 876.988 836.696 876.988H867.046C891.906 876.988 912.405 858 914.747 833.798C917.088 858 944.533 876.988 969.393 876.988H999.737C1017.89 876.988 1033.63 870.461 1046.54 857.587C1059.44 844.702 1065.98 828.987 1065.98 810.878V709.671C1065.99 687.043 1060.37 665.886 1049.27 646.795Z" fill="#FB0100"/>
<path d="M951.207 846.268C928.268 846.268 909.604 827.607 909.604 804.67C909.604 804.45 909.604 804.259 909.193 803.85L909.016 803.676L908.855 803.487C908.495 803.065 908.327 803.049 907.98 803.049C907.98 803.049 891.849 803.046 891.847 803.046C891.826 803.046 891.647 803.138 891.337 803.497L891.181 803.68L891.009 803.85C890.604 804.255 890.604 804.448 890.604 804.67C890.604 827.607 871.94 846.268 849 846.268H818.688C802.289 846.268 788.053 840.351 776.378 828.682C764.703 817.009 758.784 802.771 758.784 786.362V685.077C758.784 663.557 764.117 643.443 774.635 625.293C785.099 607.239 799.05 592.628 816.102 581.872C825.618 576.061 835.841 571.543 846.565 568.398C857.362 565.242 868.683 563.644 880.216 563.644H919.979C931.523 563.644 942.846 565.242 953.625 568.398C964.34 571.536 974.563 576.054 984.012 581.824C1001.15 592.628 1015.1 607.237 1025.56 625.295C1036.07 643.432 1041.41 663.548 1041.41 685.079V786.362C1041.41 802.769 1035.49 817.005 1023.82 828.68C1012.15 840.351 997.911 846.268 981.504 846.268H951.207ZM900.1 689.085C897.513 689.085 895.462 689.93 893.648 691.749C891.822 693.575 890.974 695.627 890.974 698.208V728.597C890.974 729.318 891.156 729.561 891.397 729.798C891.81 730.214 892.001 730.214 892.219 730.214H908.35C909.083 730.214 909.328 730.03 909.569 729.789C909.795 729.561 909.974 729.325 909.974 728.594V698.206C909.974 695.663 909.151 693.633 907.387 691.834C905.33 689.958 903.249 689.083 900.848 689.083H900.1V689.085Z" fill="white"/>
<path d="M919.964 570C930.969 570 941.588 571.501 951.831 574.498C962.085 577.5 971.697 581.755 980.694 587.248C996.941 597.496 1010.06 611.237 1020.06 628.485C1030.05 645.729 1035.05 664.602 1035.05 685.094C1035.05 707.09 1035.05 742.572 1035.05 786.302C1035.05 801.055 1029.8 813.672 1019.31 824.17C1008.81 834.663 996.197 839.912 981.444 839.912H951.165C931.659 839.912 915.844 824.103 915.844 804.597C915.844 802.595 915.093 800.844 913.592 799.347C912.096 797.601 910.223 796.722 907.972 796.722C904.467 796.722 899.097 796.722 891.851 796.722C889.85 796.722 888.103 797.601 886.602 799.347C885.101 800.844 884.355 802.595 884.355 804.597C884.355 824.106 868.54 839.912 849.034 839.912H818.748C804.009 839.912 791.386 834.663 780.888 824.17C770.39 813.672 765.141 801.055 765.141 786.302C765.141 764.316 765.141 728.833 765.141 685.094C765.141 664.602 770.147 645.729 780.138 628.485C790.135 611.237 803.258 597.496 819.501 587.248C828.497 581.755 838.123 577.5 848.364 574.498C858.618 571.501 869.238 570 880.231 570C888.982 570 902.22 570 919.964 570ZM892.223 736.453C895.727 736.453 901.098 736.453 908.341 736.453C910.593 736.453 912.468 735.702 913.969 734.206C915.47 732.705 916.216 730.83 916.216 728.585C916.216 721.835 916.216 711.713 916.216 698.217C916.216 693.969 914.715 690.343 911.717 687.347C908.477 684.345 904.844 682.849 900.848 682.849C900.604 682.849 900.354 682.849 900.097 682.849C895.849 682.849 892.223 684.345 889.228 687.347C886.23 690.345 884.729 693.969 884.729 698.217C884.729 704.963 884.729 715.089 884.729 728.585C884.729 730.832 885.48 732.705 886.981 734.206C888.475 735.707 890.226 736.453 892.223 736.453ZM919.964 557.5H880.229C868.111 557.5 856.208 559.182 844.854 562.501C833.604 565.799 822.884 570.537 812.983 576.582L812.905 576.63L812.827 576.679C794.925 587.973 780.289 603.296 769.321 622.219C758.252 641.322 752.64 662.477 752.64 685.096V786.302C752.64 804.415 759.17 820.13 772.05 833.009C784.932 845.884 800.644 852.412 818.748 852.412H849.034C873.841 852.412 894.298 833.424 896.634 809.221H903.565C905.902 833.424 926.358 852.412 951.165 852.412H981.444C999.555 852.412 1015.27 845.884 1028.15 833.011C1041.02 820.126 1047.55 804.413 1047.55 786.302V685.094C1047.55 662.463 1041.94 641.308 1030.87 622.215C1019.91 603.293 1005.27 587.971 987.361 576.674L987.283 576.626L987.205 576.578C977.293 570.525 966.57 565.788 955.34 562.499C943.998 559.182 932.095 557.5 919.964 557.5ZM897.228 723.951V698.217C897.228 697.29 897.417 696.836 898.066 696.186C898.725 695.527 899.159 695.348 900.097 695.348H900.848C901.243 695.348 901.892 695.348 903.035 696.347C903.561 696.916 903.717 697.37 903.717 698.217V723.951H897.228Z" fill="#FB0100"/>
<path d="M1260.46 696.056C1248.63 681.506 1246 674.236 1227.7 674.236L1206.69 683.228C1188.39 683.228 1172.51 689.763 1159.49 702.653C1146.48 715.54 1139.88 731.264 1139.88 749.386L1133.57 911.919C1133.57 930.051 1146.48 946.062 1159.5 958.945C1172.51 971.83 1188.39 978.364 1206.69 978.364H1217.29C1235.59 978.364 1251.47 971.83 1264.48 958.942C1277.5 946.062 1284.1 930.338 1284.1 912.206V839.799V749.389C1284.1 731.264 1271.99 710.258 1260.46 696.056Z" fill="#3B49F4"/>
<path d="M1242.02 668.408C1230.2 653.857 1227.57 646.588 1209.27 646.588L1188.25 655.58C1169.95 655.58 1154.08 662.114 1141.06 675.004C1128.05 687.891 1121.45 703.615 1121.45 721.74L1115.14 884.271C1115.14 902.402 1128.05 918.413 1141.07 931.296C1154.08 944.181 1169.95 950.716 1188.25 950.716H1198.86C1217.16 950.716 1233.04 944.181 1246.05 931.294C1259.07 918.414 1265.66 902.689 1265.66 884.558V812.151V721.74C1265.66 703.618 1253.56 682.609 1242.02 668.408Z" fill="#00FF00"/>
<path d="M1223.59 643.832C1211.77 629.281 1209.14 622.012 1190.84 622.012L1169.82 631.004C1151.52 631.004 1135.65 637.538 1122.63 650.428C1109.62 663.316 1103.02 679.04 1103.02 697.162L1096.7 859.695C1096.7 877.826 1109.62 893.837 1122.64 906.72C1135.65 919.605 1151.52 926.14 1169.82 926.14H1180.43C1198.73 926.14 1214.61 919.605 1227.62 906.718C1240.63 893.837 1247.23 878.113 1247.23 859.982V787.579V697.164C1247.23 679.042 1235.14 658.033 1223.59 643.832Z" fill="#F6CC06"/>
<path d="M1202.09 622.328C1190.27 607.777 1187.64 600.508 1169.34 600.508L1148.32 609.5C1130.02 609.5 1114.14 616.034 1101.13 628.924C1088.11 641.811 1081.52 657.535 1081.52 675.66L1075.2 838.191C1075.2 856.322 1088.12 872.333 1101.13 885.216C1114.14 898.101 1130.02 904.636 1148.32 904.636H1158.93C1177.22 904.636 1193.1 898.101 1206.12 885.214C1219.13 872.333 1225.73 856.609 1225.73 838.478V766.074V675.66C1225.73 657.538 1213.63 636.529 1202.09 622.328Z" fill="#F98F00"/>
<path d="M1183.66 594.68C1171.83 580.13 1169.2 572.86 1150.9 572.86L1129.89 581.852C1111.59 581.852 1095.71 588.387 1082.69 601.277C1069.68 614.164 1063.08 629.888 1063.08 648.01L1056.77 810.543C1056.77 828.675 1069.68 844.686 1082.7 857.569C1095.71 870.454 1111.59 876.988 1129.89 876.988H1140.49C1158.79 876.988 1174.67 870.454 1187.68 857.566C1200.7 844.686 1207.3 828.962 1207.3 810.83V738.425V648.01C1207.3 629.888 1195.19 608.879 1183.66 594.68Z" fill="#FB0100"/>
<path d="M1111.35 846.268C1094.72 846.268 1080.29 840.349 1068.46 828.676C1056.62 817.011 1050.62 802.776 1050.62 786.365V623.546C1050.62 607.142 1056.62 592.907 1068.46 581.235C1080.29 569.562 1094.72 563.644 1111.35 563.644H1122C1138.63 563.644 1153.06 569.562 1164.89 581.235C1176.72 592.907 1182.72 607.142 1182.72 623.546V786.365C1182.72 802.776 1176.72 817.011 1164.89 828.676C1153.06 840.349 1138.63 846.268 1122 846.268H1111.35Z" fill="white"/>
<path d="M1121.98 569.999C1136.9 569.999 1149.66 575.248 1160.29 585.745C1170.91 596.243 1176.22 608.866 1176.22 623.604C1176.22 643.849 1176.22 673.969 1176.22 713.949C1176.22 729.946 1176.22 754.062 1176.22 786.301C1176.22 801.046 1170.91 813.669 1160.29 824.16C1149.66 834.657 1136.89 839.906 1121.98 839.906C1119.7 839.906 1116.17 839.906 1111.36 839.906C1096.44 839.906 1083.68 834.657 1073.06 824.16C1062.44 813.667 1057.13 801.046 1057.13 786.301C1057.13 750.064 1057.13 695.834 1057.13 623.607C1057.13 608.866 1062.44 596.245 1073.06 585.748C1083.68 575.25 1096.44 570.001 1111.36 570.001C1113.89 569.999 1117.43 569.999 1121.98 569.999ZM1121.98 557.5H1111.36C1093.04 557.5 1077.15 564.029 1064.11 576.909C1051.09 589.789 1044.48 605.501 1044.48 623.609V786.303C1044.48 804.42 1051.09 820.132 1064.12 833.005C1077.15 845.88 1093.04 852.412 1111.36 852.412H1121.98C1140.3 852.412 1156.2 845.883 1169.23 833.003C1182.26 820.132 1188.86 804.42 1188.86 786.303V713.951V623.607C1188.86 605.499 1182.26 589.787 1169.23 576.907C1156.2 564.029 1140.3 557.5 1121.98 557.5Z" fill="#FB0100"/>
</g>
</g>
<rect x="24" y="24" width="1488" height="1488" rx="26" stroke="url(#paint0_angular_211_2)" stroke-width="48"/>
</g>
<defs>
<filter id="filter0_i_211_2" x="0" y="0" width="1576" height="1576" filterUnits="userSpaceOnUse" color-interpolation-filters="sRGB">
<feFlood flood-opacity="0" result="BackgroundImageFix"/>
<feBlend mode="normal" in="SourceGraphic" in2="BackgroundImageFix" result="shape"/>
<feColorMatrix in="SourceAlpha" type="matrix" values="0 0 0 0 0 0 0 0 0 0 0 0 0 0 0 0 0 0 127 0" result="hardAlpha"/>
<feOffset dx="40" dy="40"/>
<feGaussianBlur stdDeviation="60"/>
<feComposite in2="hardAlpha" operator="arithmetic" k2="-1" k3="1"/>
<feColorMatrix type="matrix" values="0 0 0 0 0.00392157 0 0 0 0 1 0 0 0 0 0 0 0 0 0.65 0"/>
<feBlend mode="normal" in2="shape" result="effect1_innerShadow_211_2"/>
</filter>
<filter id="filter1_f_211_2" x="-550" y="-558" width="1360" height="1360" filterUnits="userSpaceOnUse" color-interpolation-filters="sRGB">
<feFlood flood-opacity="0" result="BackgroundImageFix"/>
<feBlend mode="normal" in="SourceGraphic" in2="BackgroundImageFix" result="shape"/>
<feGaussianBlur stdDeviation="250" result="effect1_foregroundBlur_211_2"/>
</filter>
<filter id="filter2_f_211_2" x="263" y="804" width="1480" height="1480" filterUnits="userSpaceOnUse" color-interpolation-filters="sRGB">
<feFlood flood-opacity="0" result="BackgroundImageFix"/>
<feBlend mode="normal" in="SourceGraphic" in2="BackgroundImageFix" result="shape"/>
<feGaussianBlur stdDeviation="250" result="effect1_foregroundBlur_211_2"/>
</filter>
<radialGradient id="paint0_angular_211_2" cx="0" cy="0" r="1" gradientUnits="userSpaceOnUse" gradientTransform="translate(519.5 656.5) rotate(78.9033) scale(922.243)">
<stop stop-color="#01FF00"/>
<stop offset="0.25" stop-color="#027D02"/>
<stop offset="0.5" stop-color="#01FF00"/>
<stop offset="0.75" stop-color="#027D02"/>
<stop offset="1" stop-color="#01FF00"/>
</radialGradient>
<clipPath id="clip0_211_2">
<rect width="1536" height="1536" rx="50" fill="white"/>
</clipPath>
<clipPath id="clip1_211_2">
<rect width="1032.19" height="420.864" fill="white" transform="translate(251.904 557.5)"/>
</clipPath>
</defs>
</svg>